<svg width="1951" height="460" viewBox="0 0 1951 460" fill="none" xmlns="http://www.w3.org/2000/svg">
<path fill-rule="evenodd" clip-rule="evenodd" d="M5 279.5C85.2576 204.666 282.259 58.3997 428.205 71.9997C499.016 78.5983 546.24 97.98 595.611 118.243C644.962 138.497 696.458 159.632 775.803 169.76C785.691 171.022 795.773 170.572 805.513 168.453C920.405 143.46 975.433 99.8724 975.5 0.182026C975.567 99.8724 1030.59 143.46 1145.49 168.453C1155.23 170.572 1165.31 171.022 1175.2 169.76C1254.54 159.632 1306.04 138.497 1355.39 118.243C1404.76 97.9799 1451.98 78.5983 1522.8 71.9997C1668.74 58.3997 1865.74 204.666 1946 279.5V455H975.5H5V279.5Z" fill="url(#paint0_linear_244_4)"/>
<path d="M428.205 71.9997L427.741 76.9781L427.741 76.9781L428.205 71.9997ZM5 279.5L1.59021 275.843L0 277.325V279.5H5ZM595.611 118.243L593.712 122.868L593.712 122.868L595.611 118.243ZM775.803 169.76L775.17 174.72L775.17 174.72L775.803 169.76ZM805.513 168.453L806.576 173.339L806.576 173.339L805.513 168.453ZM975.5 0.182026L980.5 0.178674L970.5 0.178671L975.5 0.182026ZM1145.49 168.453L1144.42 173.339L1144.42 173.339L1145.49 168.453ZM1175.2 169.76L1174.56 164.801L1174.56 164.801L1175.2 169.76ZM1355.39 118.243L1357.29 122.868L1357.29 122.868L1355.39 118.243ZM1522.8 71.9997L1522.33 67.0212L1522.33 67.0212L1522.8 71.9997ZM1946 279.5H1951V277.325L1949.41 275.843L1946 279.5ZM1946 455V460H1951V455H1946ZM5 455H0V460H5V455ZM428.669 67.0212C354.093 60.0719 267.215 93.9106 189.492 138.244C111.579 182.686 41.9562 238.205 1.59021 275.843L8.40979 283.157C48.3015 245.961 117.308 190.93 194.447 146.93C271.775 102.822 356.37 70.3274 427.741 76.9781L428.669 67.0212ZM597.509 113.617C548.091 93.3349 500.277 73.6941 428.669 67.0212L427.741 76.9781C497.756 83.5025 544.389 102.625 593.712 122.868L597.509 113.617ZM776.436 164.801C697.777 154.76 646.788 133.842 597.509 113.617L593.712 122.868C643.136 143.153 695.138 164.505 775.17 174.72L776.436 164.801ZM804.45 163.567C795.264 165.566 785.755 165.99 776.436 164.801L775.17 174.72C785.627 176.055 796.282 175.578 806.576 173.339L804.45 163.567ZM970.5 0.178671C970.467 49.0146 957.023 83.3759 930.139 108.689C903.013 134.228 861.619 151.131 804.45 163.567L806.576 173.339C864.3 160.782 907.866 143.394 936.994 115.969C966.363 88.3173 980.466 51.0399 980.5 0.185381L970.5 0.178671ZM970.5 0.185378C970.534 51.0399 984.637 88.3173 1014.01 115.969C1043.13 143.394 1086.7 160.782 1144.42 173.339L1146.55 163.567C1089.38 151.131 1047.99 134.228 1020.86 108.689C993.977 83.3759 980.533 49.0146 980.5 0.178674L970.5 0.185378ZM1144.42 173.339C1154.72 175.578 1165.37 176.055 1175.83 174.72L1174.56 164.801C1165.24 165.99 1155.74 165.566 1146.55 163.567L1144.42 173.339ZM1175.83 174.72C1255.86 164.505 1307.86 143.153 1357.29 122.868L1353.49 113.617C1304.21 133.842 1253.22 154.76 1174.56 164.801L1175.83 174.72ZM1357.29 122.868C1406.61 102.625 1453.24 83.5025 1523.26 76.9781L1522.33 67.0212C1450.72 73.6941 1402.91 93.3349 1353.49 113.617L1357.29 122.868ZM1523.26 76.9781C1594.63 70.3274 1679.22 102.822 1756.55 146.93C1833.69 190.93 1902.7 245.961 1942.59 283.157L1949.41 275.843C1909.04 238.205 1839.42 182.686 1761.51 138.244C1683.78 93.9106 1596.91 60.0719 1522.33 67.0212L1523.26 76.9781ZM1941 279.5V455H1951V279.5H1941ZM1946 450H975.5V460H1946V450ZM5 460H975.5V450H5V460ZM0 279.5V455H10V279.5H0Z" fill="#FFDA7A"/>
<defs>
<linearGradient id="paint0_linear_244_4" x1="5" y1="455" x2="1946" y2="455" gradientUnits="userSpaceOnUse">
<stop stop-color="#FFEED4"/>
<stop offset="1" stop-color="#FFFBEB"/>
</linearGradient>
</defs>
</svg>
