
<svg width="1951" height="460" viewBox="0 0 1951 460" fill="none" xmlns="http://www.w3.org/2000/svg">
<path fill-rule="evenodd" clip-rule="evenodd" d="M5 279.5C85.2576 204.666 282.259 58.3997 428.205 71.9997C499.016 78.5983 546.24 97.98 595.611 118.243C647.995 139.742 702.795 162.233 790.753 171.5C915.77 147 975.5 104 975.5 0C975.5 104 1035.23 147 1160.25 171.5C1248.2 162.233 1303.01 139.742 1355.39 118.243C1404.76 97.98 1451.98 78.5983 1522.8 71.9997C1668.74 58.3997 1865.74 204.666 1946 279.5V455H975.5H5V279.5Z" fill="url(#paint0_linear_244_4)"/>
<path d="M428.205 71.9997L427.741 76.9781L427.741 76.9781L428.205 71.9997ZM5 279.5L1.59021 275.843L0 277.325V279.5H5ZM595.611 118.243L593.712 122.868L593.712 122.868L595.611 118.243ZM790.753 171.5L790.229 176.472L790.977 176.551L791.715 176.407L790.753 171.5ZM1160.25 171.5L1159.29 176.407L1160.02 176.551L1160.77 176.472L1160.25 171.5ZM1355.39 118.243L1357.29 122.868L1357.29 122.868L1355.39 118.243ZM1522.8 71.9997L1523.26 76.9781L1523.26 76.9781L1522.8 71.9997ZM1946 279.5H1951V277.325L1949.41 275.843L1946 279.5ZM1946 455V460H1951V455H1946ZM5 455H0V460H5V455ZM428.669 67.0212C354.093 60.0719 267.215 93.9106 189.492 138.244C111.579 182.686 41.9562 238.205 1.59021 275.843L8.40979 283.157C48.3015 245.961 117.308 190.93 194.447 146.93C271.775 102.822 356.37 70.3274 427.741 76.9781L428.669 67.0212ZM597.509 113.617C548.091 93.3349 500.277 73.6941 428.669 67.0212L427.741 76.9781C497.756 83.5025 544.389 102.625 593.712 122.868L597.509 113.617ZM791.277 166.528C704.055 157.339 649.795 135.076 597.509 113.617L593.712 122.868C646.194 144.408 701.536 167.128 790.229 176.472L791.277 166.528ZM970.5 0C970.5 50.9274 955.94 86.1587 926.71 111.804C897.177 137.716 852.079 154.387 789.791 166.593L791.715 176.407C854.444 164.113 901.719 147.034 933.305 119.321C965.195 91.3413 980.5 53.0726 980.5 0H970.5ZM970.5 2.93438e-06C970.5 53.0726 985.805 91.3413 1017.69 119.321C1049.28 147.034 1096.56 164.113 1159.29 176.407L1161.21 166.593C1098.92 154.387 1053.82 137.716 1024.29 111.804C995.06 86.1587 980.5 50.9274 980.5 -2.93438e-06L970.5 2.93438e-06ZM1160.77 176.472C1249.46 167.128 1304.81 144.408 1357.29 122.868L1353.49 113.617C1301.21 135.076 1246.95 157.339 1159.72 166.528L1160.77 176.472ZM1357.29 122.868C1406.61 102.625 1453.24 83.5025 1523.26 76.9781L1522.33 67.0212C1450.72 73.6941 1402.91 93.3349 1353.49 113.617L1357.29 122.868ZM1523.26 76.9781C1594.63 70.3274 1679.22 102.822 1756.55 146.93C1833.69 190.93 1902.7 245.961 1942.59 283.157L1949.41 275.843C1909.04 238.205 1839.42 182.686 1761.51 138.244C1683.78 93.9106 1596.91 60.0719 1522.33 67.0212L1523.26 76.9781ZM1941 279.5V455H1951V279.5H1941ZM1946 450H975.5V460H1946V450ZM5 460H975.5V450H5V460ZM0 279.5V455H10V279.5H0Z" fill="#FFDA7A"/>
<defs>
<linearGradient id="paint0_linear_244_4" x1="5" y1="455" x2="1946" y2="455" gradientUnits="userSpaceOnUse">
<stop stop-color="#FFEED4"/>
<stop offset="1" stop-color="#FFFBEB"/>
</linearGradient>
</defs>
</svg>
